<svg xmlns="http://www.w3.org/2000/svg" style="display: none;">
  <defs>
    <symbol id="icon-play" fill="none" viewBox="0 0 24 24" stroke-width="1.5" stroke="currentColor" class="size-6">
        <path stroke-linecap="round" stroke-linejoin="round" d="M5.25 5.653c0-.856.917-1.398 1.667-.986l11.54 6.347a1.125 1.125 0 0 1 0 1.972l-11.54 6.347a1.125 1.125 0 0 1-1.667-.986V5.653Z" />
    </symbol>
    <symbol id="icon-arrow-path" fill="none" viewBox="0 0 24 24" stroke-width="1.5" stroke="currentColor" class="size-6">
        <path stroke-linecap="round" stroke-linejoin="round" d="M16.023 9.348h4.992v-.001M2.985 19.644v-4.992m0 0h4.992m-4.993 0 3.181 3.183a8.25 8.25 0 0 0 13.803-3.7M4.031 9.865a8.25 8.25 0 0 1 13.803-3.7l3.181 3.182m0-4.991v4.99" />
    </symbol>

    <symbol id="icon-pencil" fill="none" viewBox="0 0 24 24" stroke-width="1.5" stroke="currentColor" class="size-6">
        <path stroke-linecap="round" stroke-linejoin="round" d="M9.53 16.122a3 3 0 0 0-5.78 1.128 2.25 2.25 0 0 1-2.4 2.245 4.5 4.5 0 0 0 8.4-2.245c0-.399-.078-.78-.22-1.128Zm0 0a15.998 15.998 0 0 0 3.388-1.62m-5.043-.025a15.994 15.994 0 0 1 1.622-3.395m3.42 3.42a15.995 15.995 0 0 0 4.764-4.648l3.876-5.814a1.151 1.151 0 0 0-1.597-1.597L14.146 6.32a15.996 15.996 0 0 0-4.649 4.763m3.42 3.42a6.776 6.776 0 0 0-3.42-3.42" />
    </symbol>
    <symbol id="icon-pencil-crossed" fill="none" viewBox="0 0 24 24" stroke-width="1.5" stroke="currentColor" class="size-6">
        <path stroke-linecap="round" stroke-linejoin="round" d="M9.53 16.122a3 3 0 0 0-5.78 1.128 2.25 2.25 0 0 1-2.4 2.245 4.5 4.5 0 0 0 8.4-2.245c0-.399-.078-.78-.22-1.128Zm0 0a15.998 15.998 0 0 0 3.388-1.62m-5.043-.025a15.994 15.994 0 0 1 1.622-3.395m3.42 3.42a15.995 15.995 0 0 0 4.764-4.648l3.876-5.814a1.151 1.151 0 0 0-1.597-1.597L14.146 6.32a15.996 15.996 0 0 0-4.649 4.763m3.42 3.42a6.776 6.776 0 0 0-3.42-3.42" />

        <path stroke-linecap="round" stroke-linejoin="round" stroke="red" d="M 1.2194055,1.2903721 22.677053,22.578437" />
    </symbol>

    <symbol id="icon-circle-solid" fill="currentColor" viewBox="0 0 24 24" stroke-width="1.5" stroke="black" class="size-6">
        <path d="m 12,2.25 c -5.385,0 -9.75,4.365 -9.75,9.75 0,5.385 4.365,9.75 9.75,9.75 5.385,0 9.75,-4.365 9.75,-9.75 0,-5.385 -4.365,-9.75 -9.75,-9.75 z" />
    </symbol>

    <symbol id="icon-smaller" fill="currentColor" viewBox="0 0 24 24" stroke-width="1.5" stroke="black" class="size-6">
        <path stroke-linecap="round" stroke-linejoin="round" d="M 5.9378222,15.5 18.062178,8.5" />
    </symbol>
    <symbol id="icon-larger" fill="currentColor" viewBox="0 0 24 24" stroke-width="5.0" stroke="black" class="size-6">
        <path stroke-linecap="round" stroke-linejoin="round" d="M 5.9378222,15.5 18.062178,8.5" />
    </symbol>

    <symbol id="icon-arrow-up" fill="none" viewBox="0 0 24 24" stroke-width="1.5" stroke="currentColor" class="size-6">
      <path stroke-linecap="round" stroke-linejoin="round" d="M4.5 10.5 12 3m0 0 7.5 7.5M12 3v18" />
    </symbol>
    <symbol id="icon-arrow-down" fill="none" viewBox="0 0 24 24" stroke-width="1.5" stroke="currentColor" class="size-6">
      <path stroke-linecap="round" stroke-linejoin="round" d="M19.5 13.5 12 21m0 0-7.5-7.5M12 21V3" />
    </symbol>
    <symbol id="icon-turn-left-90" fill="none" viewBox="0 0 24 24" stroke-width="1.5" stroke="currentColor" class="size-6">
        <path stroke-linecap="round" stroke-linejoin="round" d="m 7.4785426,12 -3.75,-3.752 m 0,0 3.75,-3.75 m -3.75,3.75 c 0,0 10.4826884,-1.1538828 13.7532934,2.116722 C 20.752441,13.635327 20.228542,19.5 20.228542,19.5" />
    </symbol>
    <symbol id="icon-turn-right-90" fill="none" viewBox="0 0 24 24" stroke-width="1.5" stroke="currentColor" class="size-6">
        <path stroke-linecap="round" stroke-linejoin="round" d="m 16.521457,12 3.75,-3.752 m 0,0 -3.75,-3.75 m 3.75,3.75 c 0,0 -10.482688,-1.1538828 -13.753293,2.116722 C 3.247559,13.635327 3.771458,19.5 3.771458,19.5" />
    </symbol>
    <symbol id="icon-turn-left-45" fill="none" viewBox="0 0 24 24" stroke-width="1.5" stroke="currentColor" class="size-6">
        <path stroke-linecap="round" stroke-linejoin="round" d="m 7.8851505,7.4286125 0.0014,-5.3047151 m 0,0 h 5.3033015 m -5.3033015,0 c 0,0 8.2282985,6.5964623 8.2282985,11.2217966 0,4.625334 -0.0092,8.436594 -0.0092,8.436594" />
    </symbol>
    <symbol id="icon-turn-right-45" fill="none" viewBox="0 0 24 24" stroke-width="1.5" stroke="currentColor" class="size-6">
        <path stroke-linecap="round" stroke-linejoin="round" d="m 16.114849,7.4286125 -0.0014,-5.3047151 m 0,0 h -5.303301 m 5.303301,0 c 0,0 -8.2282985,6.5964623 -8.2282985,11.2217966 0,4.625334 0.0092,8.436594 0.0092,8.436594" />
    </symbol>

    <symbol id="icon-backspace" fill="none" viewBox="0 0 24 24" stroke-width="1.5" stroke="currentColor" class="size-6">
      <path stroke-linecap="round" stroke-linejoin="round" d="M12 9.75 14.25 12m0 0 2.25 2.25M14.25 12l2.25-2.25M14.25 12 12 14.25m-2.58 4.92-6.374-6.375a1.125 1.125 0 0 1 0-1.59L9.42 4.83c.21-.211.497-.33.795-.33H19.5a2.25 2.25 0 0 1 2.25 2.25v10.5a2.25 2.25 0 0 1-2.25 2.25h-9.284c-.298 0-.585-.119-.795-.33Z" />
    </symbol>
  </defs>
</svg>
